<svg width="20" height="19" viewBox="0 0 20 19" fill="none" xmlns="http://www.w3.org/2000/svg">
<path d="M9.99121 18.7422C14.9746 18.7422 19.0879 14.6289 19.0879 9.6543C19.0879 4.67969 14.9658 0.566406 9.98242 0.566406C5.00781 0.566406 0.90332 4.67969 0.90332 9.6543C0.90332 14.6289 5.0166 18.7422 9.99121 18.7422ZM9.99121 16.9316C5.95703 16.9316 2.73145 13.6885 2.73145 9.6543C2.73145 5.62012 5.95703 2.38574 9.98242 2.38574C14.0166 2.38574 17.2598 5.62012 17.2686 9.6543C17.2773 13.6885 14.0254 16.9316 9.99121 16.9316ZM7.1084 13.3457C7.33691 13.3457 7.53906 13.2666 7.68848 13.1084L9.99121 10.8057L12.2939 13.1084C12.4434 13.2578 12.6367 13.3457 12.874 13.3457C13.3223 13.3457 13.6738 12.9941 13.6738 12.5459C13.6738 12.3262 13.5859 12.1328 13.4365 11.9834L11.125 9.67188L13.4365 7.35156C13.6035 7.18457 13.6826 7.00879 13.6826 6.79785C13.6826 6.34961 13.3311 5.99805 12.8828 5.99805C12.6631 5.99805 12.4785 6.06836 12.3115 6.23535L9.99121 8.54688L7.6709 6.24414C7.52148 6.08594 7.33691 6.00684 7.1084 6.00684C6.66016 6.00684 6.30859 6.34961 6.30859 6.79785C6.30859 7.01758 6.39648 7.21094 6.55469 7.36035L8.85742 9.67188L6.55469 11.9922C6.39648 12.1328 6.30859 12.335 6.30859 12.5459C6.30859 12.9941 6.66016 13.3457 7.1084 13.3457Z" fill="#1C1C1E"/>
</svg>
