<svg xmlns="http://www.w3.org/2000/svg" width="18" height="18" fill="none" viewBox="0 0 18 18">
  <path fill="#9C79FF" d="M12.51 10.5c.07-.578.121-1.155.121-1.75S12.58 7.577 12.51 7h2.945c.14.56.226 1.146.226 1.75a7.24 7.24 0 0 1-.226 1.75m-4.487 4.865a13.73 13.73 0 0 0 1.203-3.115h2.57a7.002 7.002 0 0 1-3.773 3.115ZM10.75 10.5H6.673a11.66 11.66 0 0 1-.14-1.75c0-.595.053-1.181.14-1.75h4.077c.078.569.14 1.155.14 1.75s-.062 1.172-.14 1.75Zm-2.04 5.215c-.723-1.05-1.306-2.214-1.664-3.465h3.328c-.357 1.251-.94 2.415-1.664 3.465ZM5.227 5.25H2.683a6.91 6.91 0 0 1 3.763-3.115c-.522.971-.914 2.021-1.22 3.115Zm-2.544 7h2.544c.305 1.094.697 2.144 1.22 3.115a6.983 6.983 0 0 1-3.764-3.115ZM1.97 10.5a7.242 7.242 0 0 1-.227-1.75c0-.604.087-1.19.227-1.75h2.944c-.07.577-.122 1.155-.122 1.75s.052 1.172.122 1.75m3.798-8.724a11.937 11.937 0 0 1 1.664 3.474H7.047a11.94 11.94 0 0 1 1.664-3.474ZM14.74 5.25h-2.57a13.73 13.73 0 0 0-1.202-3.115A6.965 6.965 0 0 1 14.74 5.25ZM8.712 0C3.894 0 0 3.938 0 8.75a8.77 8.77 0 0 0 2.551 6.187 8.708 8.708 0 0 0 6.16 2.563c2.31 0 4.526-.922 6.16-2.563a8.77 8.77 0 0 0 1.888-9.535 8.753 8.753 0 0 0-1.888-2.84A8.678 8.678 0 0 0 8.711 0Z"/>
</svg>
