<svg xmlns="http://www.w3.org/2000/svg" width="20" height="17" fill="none" viewBox="0 0 20 17">
  <path fill="#9C79FF" d="M19.855 3.545 17.006.183c-.327-.386-.878-.12-.878.421v2.158H1.829c-.562 0-1.021.542-1.021 1.205s.46 1.205 1.021 1.205h14.299v2.157c0 .542.551.808.868.422l2.85-3.362a.67.67 0 0 0 .01-.844Zm-1.685 8.283H3.873V9.671c0-.542-.551-.808-.868-.422l-2.85 3.362a.67.67 0 0 0-.01.844l2.85 3.362c.327.386.878.12.878-.421v-2.158h14.299c.561 0 1.02-.542 1.02-1.205s-.459-1.205-1.02-1.205Z"/>
</svg>
