<svg xmlns="http://www.w3.org/2000/svg" width="17" height="16" fill="none" viewBox="0 0 17 16">
  <path fill="#9C79FF" d="M8.5 11.89c-.301 0-.553-.098-.756-.295a.975.975 0 0 1-.306-.731V3.518L5.444 5.445c-.212.205-.46.308-.743.308-.284 0-.54-.111-.77-.334a.939.939 0 0 1-.306-.733.985.985 0 0 1 .305-.705L7.756.283a.942.942 0 0 1 .346-.22 1.257 1.257 0 0 1 .796.001c.124.043.24.116.346.219l3.825 3.698a.939.939 0 0 1 .305.731.986.986 0 0 1-.305.707 1.098 1.098 0 0 1-.757.32 1.006 1.006 0 0 1-.757-.294L9.563 3.518v7.346a.977.977 0 0 1-.305.731 1.048 1.048 0 0 1-.758.296ZM2.125 16a2.081 2.081 0 0 1-1.5-.603A1.947 1.947 0 0 1 0 13.945v-2.054a.98.98 0 0 1 .305-.733 1.05 1.05 0 0 1 .758-.294c.3 0 .553.098.757.294a.98.98 0 0 1 .305.733v2.054h12.75v-2.054a.98.98 0 0 1 .306-.733c.203-.196.456-.294.757-.294.3 0 .553.098.756.294a.978.978 0 0 1 .306.733v2.054c0 .565-.208 1.05-.624 1.452a2.085 2.085 0 0 1-1.501.603H2.125Z"/>
</svg>
